<svg width="114" height="122" viewBox="0 0 114 122" fill="none" xmlns="http://www.w3.org/2000/svg">
<path d="M93.04 19.2466L111.88 101.872C111.88 102.155 111.88 102.439 111.88 102.712C111.641 107.267 109.682 111.573 106.383 114.797C103.084 118.02 98.6785 119.933 94.02 120.164H93.54H93.06C88.0797 120.164 83.3017 118.237 79.7698 114.804C76.2379 111.371 74.2391 106.711 74.21 101.842L93.04 19.2466Z" fill="#E76F51"/>
<path d="M93.04 2V19.2465H87.22V4.11181L87.2 4.04338L93.04 2Z" fill="#E76F51"/>
<path d="M93.04 19.2466L74.19 101.872H2.01001L20.85 19.2466H93.04ZM72.83 54.688C74.51 41.186 64.99 30.2456 51.58 30.2456C45.7177 30.3272 40.0392 32.2578 35.39 35.75C29.0664 40.3098 24.8172 47.1064 23.55 54.688C21.47 68.19 30.99 79.1304 44.8 79.1304C50.2393 79.0885 55.5433 77.4688 60.04 74.4765C63.4952 72.2641 66.4248 69.3528 68.6312 65.9391C70.8376 62.5254 72.2694 58.6888 72.83 54.688Z" fill="#E76F51"/>
<path d="M93.04 120.194H20.75C15.7798 120.194 11.0132 118.263 7.49881 114.827C3.98438 111.391 2.01001 106.731 2.01001 101.872H74.19C74.2191 106.741 76.2178 111.401 79.7498 114.834C83.2817 118.267 88.0596 120.194 93.04 120.194Z" fill="#E76F51"/>
<path d="M87.22 4.1113V19.246H81.19V2.06792L87.01 4.1113L87.2 4.04287L87.22 4.1113Z" fill="#E76F51"/>
<path d="M81.19 2.06843V19.2465H74.83V4.11181L74.85 4.06294L74.98 4.11181L80.99 2L81.19 2.06843Z" fill="#E76F51"/>
<path d="M74.85 4.06294L74.83 4.11181V19.2465H68.81V2.04889L68.96 2L74.85 4.06294Z" fill="#E76F51"/>
<path d="M51.63 30.2456C65.04 30.2456 74.56 41.186 72.88 54.688C72.3194 58.6888 70.8876 62.5254 68.6812 65.9391C66.4749 69.3528 63.5453 72.2641 60.0901 74.4765C55.5934 77.4688 50.2893 79.0885 44.85 79.1304C31.04 79.1304 21.52 68.19 23.6 54.688C24.8672 47.1064 29.1164 40.3098 35.44 35.75C40.0892 32.2578 45.7678 30.3272 51.63 30.2456ZM60.63 66.4203C63.21 64.2987 64.3801 61.2777 63.7801 58.8725C63.6 58.1766 63.2578 57.5307 62.7801 56.9856C62.5154 56.6755 62.2053 56.4054 61.86 56.1839C59.55 54.6098 55.81 55.0693 52.86 57.4549C50.22 59.6253 49.06 62.7344 49.76 65.1689C49.932 65.8052 50.2462 66.3962 50.68 66.8994C51.244 67.5492 51.9814 68.0331 52.81 68.2975C55.15 69.0992 58.18 68.4442 60.63 66.4399V66.4203ZM47.31 56.3012C49.39 50.611 47.49 44.7448 43.06 43.2001C42.5058 43.0065 41.9271 42.888 41.34 42.8481C37.34 42.545 33.1 45.7812 31.28 50.6697C29.2 56.3696 31.1 62.2358 35.53 63.7806C36.7015 64.1865 37.9657 64.2644 39.18 64.0054C42.54 63.4188 45.77 60.4955 47.3 56.3207L47.31 56.3012Z" fill="#F9F6EA"/>
<path d="M68.81 2.04889V19.2465H62.97V4.11181V4.10204L68.81 2.04889Z" fill="#E76F51"/>
<path d="M63.77 58.8921C64.37 61.2972 63.2 64.3183 60.62 66.4399C58.04 68.5615 55.15 69.0992 52.87 68.317C54.6589 66.524 55.9019 64.2796 56.46 61.8349C56.7922 60.52 57.4655 59.311 58.4149 58.3245C59.3643 57.3381 60.5577 56.6075 61.88 56.2034C62.2253 56.425 62.5353 56.6951 62.8 57.0051C63.2669 57.5531 63.5989 58.1987 63.77 58.8921Z" fill="#E9C46A"/>
<path d="M62.97 4.11181V19.2465H56.94V2L62.95 4.11181L62.97 4.10204V4.11181Z" fill="#E76F51"/>
<path d="M52.92 57.4744C55.83 55.0888 59.57 54.6293 61.92 56.2034C60.5977 56.6075 59.4043 57.3381 58.4549 58.3245C57.5055 59.311 56.8322 60.52 56.5 61.835C55.942 64.2796 54.6989 66.524 52.91 68.317C52.0814 68.0527 51.344 67.5687 50.78 66.919C50.3462 66.4157 50.032 65.8247 49.86 65.1884C49.12 62.754 50.28 59.6449 52.92 57.4744Z" fill="#E9C46A"/>
<path d="M56.94 2V19.2465H50.78V4.11181L50.8 4.07271L50.92 4.11181L56.93 2H56.94Z" fill="#E76F51"/>
<path d="M50.8 4.07271L50.78 4.11181V19.2465H44.76V2.04889L44.9 2L50.8 4.07271Z" fill="#E76F51"/>
<path d="M43.05 43.2196C47.48 44.7644 49.38 50.6305 47.3 56.3207C45.77 60.4955 42.54 63.4188 39.17 64.0641C39.94 61.571 40.06 58.1979 38.81 53.593C38.2522 51.7395 38.191 49.7769 38.6322 47.8936C39.0735 46.0103 40.0025 44.2695 41.33 42.8383C41.9185 42.8877 42.4973 43.016 43.05 43.2196Z" fill="#E9C46A"/>
<path d="M44.76 2.04889V19.2465H38.92V4.11181V4.10204L44.76 2.04889Z" fill="#E76F51"/>
<path d="M31.27 50.7283C33.09 45.7616 37.33 42.5646 41.33 42.9068C40.0025 44.338 39.0736 46.0788 38.6323 47.9621C38.191 49.8454 38.2522 51.8079 38.81 53.6614C40.06 58.2566 39.94 61.6394 39.17 64.1325C37.9557 64.3915 36.6915 64.3137 35.52 63.9077C31.09 62.2945 29.19 56.4283 31.27 50.7283Z" fill="#E9C46A"/>
<path d="M38.92 4.11181V19.2465H32.89V2L38.89 4.11181L38.92 4.10204V4.11181Z" fill="#E76F51"/>
<path d="M32.89 2V19.2465H26.87V4.11181L32.88 2H32.89Z" fill="#E76F51"/>
<path d="M26.87 4.11181V19.2465H20.86V2L26.87 4.11181Z" fill="#E76F51"/>
<path opacity="0.02" d="M87.23 44.7155C74.85 98.9776 25.17 99.9162 4.95999 88.9464L2.01001 101.872H74.19L87.23 44.7155Z" fill="black"/>
<path opacity="0.2" d="M93.04 19.2466H20.86L18.97 23.9688H19.77L11.43 60.5346C13.0454 60.5335 14.6121 59.993 15.8705 59.0027C17.1289 58.0123 18.0037 56.6315 18.35 55.0888L23.92 30.2945C24.3216 28.5091 25.3323 26.9104 26.7861 25.7609C28.2399 24.6113 30.0503 23.9794 31.92 23.9688H91.1L93.04 19.2466Z" fill="white"/>
<path opacity="0.2" d="M55.56 101.872C54.9601 103.946 53.9399 105.881 52.56 107.562H2.01001V101.872H55.56Z" fill="white"/>
<path opacity="0.2" d="M74.19 101.872V107.562H52.56C53.9399 105.881 54.9601 103.946 55.56 101.872H74.19Z" fill="white"/>
<path opacity="0.03" d="M55.75 101.207L74.19 101.872H55.56C55.63 101.656 55.69 101.432 55.75 101.207Z" fill="black"/>
<path opacity="0.02" d="M84.87 120.194H14.38L7.63002 114.503H35.63C39.1766 114.542 42.69 113.832 45.93 112.421C48.4886 111.32 50.7462 109.645 52.52 107.532H74.15V101.842L75.49 108.579L79.74 114.445H80.21L84.87 120.194Z" fill="black"/>
<path opacity="0.2" d="M26.87 8.13013L32.71 6.17474L38.71 8.13013L45.06 6.17474L51.1 8.13013L56.94 6.17474L62.97 8.13013L69.11 6.17474L75.1 8.13013L80.99 6.17474L87.01 8.13013L93.04 6.17474L93.46 8.13013L93.27 3.44698L32.89 2.77237L22.29 4.50289L26.87 8.13013Z" fill="white"/>
<path opacity="0.02" d="M99.25 60.8377C99.34 70.732 85.72 78.0647 85.72 44.7155L74.19 101.207L75.91 110.984L81.7 117.446L90.4 120.135L91.04 119.93C96.9797 118.047 102.08 114.23 105.49 109.116C106.81 107.108 107.505 104.767 107.49 102.38C107.489 101.566 107.405 100.753 107.24 99.9553L99.25 60.8377Z" fill="black"/>
<path d="M111.89 101.872C111.89 106.731 109.916 111.391 106.401 114.827C102.887 118.263 98.1202 120.194 93.15 120.194H20.75C15.7798 120.194 11.0132 118.263 7.49881 114.827C3.98438 111.391 2.01001 106.731 2.01001 101.872H74.2" stroke="#3C5B66" stroke-width="3" stroke-linecap="round" stroke-linejoin="round"/>
<path d="M74.19 101.872C74.2217 106.74 76.2213 111.398 79.7527 114.831C83.284 118.263 88.0604 120.191 93.04 120.194H94.04C98.696 119.958 103.097 118.044 106.394 114.82C109.691 111.597 111.649 107.294 111.89 102.742C111.89 102.468 111.89 102.184 111.89 101.901L93.04 19.2759H20.85L2 101.901" stroke="#3C5B66" stroke-width="3" stroke-linecap="round" stroke-linejoin="round"/>
<path d="M74.19 101.872L93.03 19.2465" stroke="#3C5B66" stroke-width="3" stroke-linecap="round" stroke-linejoin="round"/>
<path d="M93.03 2V19.2465H20.85V2" stroke="#3C5B66" stroke-width="3" stroke-linecap="round" stroke-linejoin="round"/>
<path d="M20.85 2L26.86 4.1216L32.88 2L38.89 4.1216L44.9 2L50.91 4.1216L56.93 2L62.94 4.1216L68.96 2L74.98 4.1216L80.99 2L87.01 4.1216L93.03 2" stroke="#3C5B66" stroke-width="3" stroke-linecap="round" stroke-linejoin="round"/>
<path d="M26.86 4.1216V19.2465" stroke="#3C5B66" stroke-width="1.5" stroke-linecap="round" stroke-linejoin="round"/>
<path d="M38.92 4.1216V19.2465" stroke="#3C5B66" stroke-width="1.5" stroke-linecap="round" stroke-linejoin="round"/>
<path d="M32.89 2V19.2465" stroke="#3C5B66" stroke-width="1.5" stroke-linecap="round" stroke-linejoin="round"/>
<path d="M50.78 4.1216V19.2465" stroke="#3C5B66" stroke-width="1.5" stroke-linecap="round" stroke-linejoin="round"/>
<path d="M44.75 2V19.2465" stroke="#3C5B66" stroke-width="1.5" stroke-linecap="round" stroke-linejoin="round"/>
<path d="M62.97 4.1216V19.2465" stroke="#3C5B66" stroke-width="1.5" stroke-linecap="round" stroke-linejoin="round"/>
<path d="M56.94 2V19.2465" stroke="#3C5B66" stroke-width="1.5" stroke-linecap="round" stroke-linejoin="round"/>
<path d="M74.83 4.1216V19.2465" stroke="#3C5B66" stroke-width="1.5" stroke-linecap="round" stroke-linejoin="round"/>
<path d="M68.8 2V19.2465" stroke="#3C5B66" stroke-width="1.5" stroke-linecap="round" stroke-linejoin="round"/>
<path d="M87.22 4.1216V19.2465" stroke="#3C5B66" stroke-width="1.5" stroke-linecap="round" stroke-linejoin="round"/>
<path d="M81.19 2V19.2465" stroke="#3C5B66" stroke-width="1.5" stroke-linecap="round" stroke-linejoin="round"/>
<path d="M72.83 54.688C71.15 68.19 58.6 79.1304 44.83 79.1304C31.06 79.1304 21.51 68.19 23.58 54.688C25.65 41.186 38.2 30.2456 51.58 30.2456C64.96 30.2456 74.51 41.186 72.83 54.688Z" stroke="#3C5B66" stroke-width="3" stroke-linecap="round" stroke-linejoin="round"/>
<path d="M41.34 42.8579C40.01 44.2877 39.0786 46.028 38.6355 47.9115C38.1924 49.795 38.2525 51.7583 38.81 53.6125C40.06 58.2077 39.94 61.5905 39.17 64.0836" stroke="#3C5B66" stroke-width="1.5" stroke-linecap="round" stroke-linejoin="round"/>
<path d="M47.3099 56.3501C49.3889 50.6543 47.4859 44.785 43.0594 43.2405C38.6329 41.696 33.3591 45.0613 31.2801 50.7571C29.201 56.4529 31.104 62.3223 35.5306 63.8668C39.9571 65.4112 45.2309 62.0459 47.3099 56.3501Z" stroke="#3C5B66" stroke-width="1.5" stroke-linecap="round" stroke-linejoin="round"/>
<path d="M61.89 56.2327C60.5665 56.6397 59.3722 57.3722 58.4214 58.36C57.4706 59.3478 56.7952 60.5578 56.46 61.874C55.9065 64.3211 54.6669 66.569 52.88 68.3659" stroke="#3C5B66" stroke-width="1.5" stroke-linecap="round" stroke-linejoin="round"/>
<path d="M60.6303 66.491C63.9622 63.7537 64.9379 59.5273 62.8097 57.051C60.6814 54.5748 56.2552 54.7864 52.9233 57.5237C49.5914 60.261 48.6156 64.4874 50.7439 66.9636C52.8721 69.4399 57.2984 69.2283 60.6303 66.491Z" stroke="#3C5B66" stroke-width="1.5" stroke-linecap="round" stroke-linejoin="round"/>
<path d="M48.14 47.2673H61.89" stroke="#3C5B66" stroke-width="1.5" stroke-linecap="round" stroke-linejoin="round"/>
<path d="M55.01 44.0116H66.14" stroke="#3C5B66" stroke-width="1.5" stroke-linecap="round" stroke-linejoin="round"/>
<path d="M31.47 68.1411H44.81" stroke="#3C5B66" stroke-width="1.5" stroke-linecap="round" stroke-linejoin="round"/>
<path d="M46.4 65.1982H49.82" stroke="#3C5B66" stroke-width="1.5" stroke-linecap="round" stroke-linejoin="round"/>
<path d="M63.76 58.8921H67.31" stroke="#3C5B66" stroke-width="1.5" stroke-linecap="round" stroke-linejoin="round"/>
<path d="M35.39 35.75H44.81" stroke="#3C5B66" stroke-width="1.5" stroke-linecap="round" stroke-linejoin="round"/>
<path d="M48.11 74.4863H60.04" stroke="#3C5B66" stroke-width="1.5" stroke-linecap="round" stroke-linejoin="round"/>
<path d="M42.31 74.4863H44.14" stroke="#3C5B66" stroke-width="1.5" stroke-linecap="round" stroke-linejoin="round"/>
<path d="M48.14 35.75H49.82" stroke="#3C5B66" stroke-width="1.5" stroke-linecap="round" stroke-linejoin="round"/>
<path d="M23.54 54.688H26.64" stroke="#3C5B66" stroke-width="1.5" stroke-linecap="round" stroke-linejoin="round"/>
<path d="M13.13 90.1294H42.38" stroke="#3C5B66" stroke-width="3" stroke-linejoin="round"/>
<path d="M47.27 90.1294H52.03" stroke="#3C5B66" stroke-width="3" stroke-linejoin="round"/>
<path d="M55.93 90.1294H66.47" stroke="#3C5B66" stroke-width="3" stroke-linejoin="round"/>
<path d="M93.03 79.1304V53.5343" stroke="#3C5B66" stroke-width="1.5" stroke-linecap="round" stroke-linejoin="round"/>
<path d="M93.03 49.3302V48.6556" stroke="#3C5B66" stroke-width="1.5" stroke-linecap="round" stroke-linejoin="round"/>
<path d="M93.03 82.3079V90.9409" stroke="#3C5B66" stroke-width="1.5" stroke-linecap="round" stroke-linejoin="round"/>
<path d="M93.03 94.5291V95.2623" stroke="#3C5B66" stroke-width="1.5" stroke-linecap="round" stroke-linejoin="round"/>
<path d="M93.03 98.606V120.194" stroke="#3C5B66" stroke-width="1.5" stroke-linecap="round" stroke-linejoin="round"/>
<path d="M74.19 107.562H44.73" stroke="#3C5B66" stroke-width="1.5" stroke-linecap="round" stroke-linejoin="round"/>
<path d="M41.31 107.562H40.35" stroke="#3C5B66" stroke-width="1.5" stroke-linecap="round" stroke-linejoin="round"/>
<path d="M54.07 111.433H62.88" stroke="#3C5B66" stroke-width="1.5" stroke-linecap="round" stroke-linejoin="round"/>
</svg>
