<svg width="194" height="158" viewBox="0 0 194 158" fill="none" xmlns="http://www.w3.org/2000/svg">
<g clip-path="url(#clip0_7:350)">
<path d="M132.16 70.6631L137.734 79.1837H133.275H68.608H64.1482L69.7229 70.6631H73.0678H128.815H132.16Z" fill="#DDDDDD"/>
<path d="M133.275 79.1837L131.747 100.485H70.1354L68.608 79.1837H133.275Z" fill="#E76F51"/>
<path d="M131.747 100.485L128.843 140.959H73.0399L70.1355 100.485H131.747Z" fill="#E9C46A"/>
<path d="M128.843 140.959L127.7 156.935H74.1827L73.0399 140.959H128.843Z" fill="#E76F51"/>
<path d="M128.815 65.0663V72.5219H73.0678V67.1965L128.815 65.0663Z" fill="#DDDDDD"/>
<path opacity="0.1" d="M71.4622 118.954C72.6664 135.729 129.194 137.14 131.747 101.284C130.164 122.559 127.7 156.935 127.7 156.935H74.1827L71.4622 118.954Z" fill="black"/>
<path opacity="0.08" d="M132.99 78.2411H68.608V82.1713H132.99V78.2411Z" fill="black"/>
<path opacity="0.33" d="M71.4567 109.858L73.8315 103.148H131.552V101.284L69.5111 100.485L71.4567 109.858Z" fill="#F5F5F5"/>
<path d="M76.1394 70.6631V67.9524L128.815 65.4708V63.2075L73.0678 66.2003V70.6631H76.1394Z" fill="#F5F5F5"/>
<path d="M73.0678 79.1837L68.608 76.979L70.8379 73.3417H133.275L132.16 70.6631H69.7229L64.1482 79.1837H73.0678Z" fill="#F5F5F5"/>
<path d="M74.1827 156.935H127.7L133.275 79.1837H68.608L74.1827 156.935Z" stroke="#3C5B66" stroke-width="4" stroke-linecap="round" stroke-linejoin="round"/>
<path d="M132.16 70.6631H69.7229L64.1482 79.1837H137.734L132.16 70.6631Z" stroke="#3C5B66" stroke-width="4" stroke-linecap="round" stroke-linejoin="round"/>
<path d="M73.0678 70.6631V65.3376L128.815 63.2075V70.6631" stroke="#3C5B66" stroke-width="4" stroke-linecap="round" stroke-linejoin="round"/>
<path d="M131.747 100.485H70.1355" stroke="#3C5B66" stroke-width="4" stroke-linecap="round" stroke-linejoin="round"/>
<path d="M128.843 140.959H73.0399" stroke="#3C5B66" stroke-width="4" stroke-linecap="round" stroke-linejoin="round"/>
<path d="M107.358 113.463C107.475 113.353 107.565 113.218 107.621 113.07C107.678 112.922 107.699 112.764 107.683 112.607C107.668 112.45 107.616 112.298 107.532 112.163C107.448 112.027 107.333 111.911 107.196 111.823C103.779 109.693 98.3658 110.758 94.4356 114.486C90.5055 118.214 89.4184 123.406 91.6483 126.676C91.7404 126.807 91.8618 126.916 92.0037 126.997C92.1455 127.077 92.3043 127.126 92.4685 127.141C92.6328 127.156 92.7984 127.136 92.9535 127.082C93.1085 127.028 93.2492 126.942 93.3653 126.83L107.358 113.463Z" fill="#264653"/>
<path d="M108.54 114.592C108.656 114.48 108.796 114.394 108.951 114.341C109.107 114.287 109.272 114.267 109.436 114.281C109.601 114.296 109.759 114.346 109.901 114.426C110.043 114.507 110.164 114.616 110.257 114.747C112.487 118.011 111.372 123.182 107.469 126.937C103.567 130.691 98.1316 131.73 94.7088 129.6C94.5719 129.511 94.4573 129.396 94.373 129.26C94.2887 129.125 94.237 128.973 94.2216 128.816C94.2061 128.659 94.2273 128.501 94.2836 128.353C94.3399 128.205 94.4299 128.07 94.5471 127.959L108.54 114.592Z" fill="#264653"/>
<path d="M89.9926 138.296H105.602" stroke="#3C5B66" stroke-width="2" stroke-linecap="round" stroke-linejoin="round"/>
<path d="M111.176 136.166H105.602" stroke="#3C5B66" stroke-width="2" stroke-linecap="round" stroke-linejoin="round"/>
<path d="M102.257 136.166H95.5673" stroke="#3C5B66" stroke-width="2" stroke-linecap="round" stroke-linejoin="round"/>
<path d="M73.8259 103.148H89.4351" stroke="#3C5B66" stroke-width="2" stroke-linecap="round" stroke-linejoin="round"/>
<path d="M113.457 58.5797C111.682 58.5797 109.981 57.9064 108.726 56.7079C107.472 55.5095 106.767 53.884 106.767 52.1892C106.767 50.4943 107.472 48.8688 108.726 47.6704C109.981 46.4719 111.682 45.7986 113.457 45.7986" stroke="white" stroke-width="4" stroke-linecap="round" stroke-linejoin="round"/>
<path d="M119.031 26.6271C121.693 26.6271 124.245 27.6371 126.127 29.4347C128.008 31.2324 129.066 33.6706 129.066 36.2129C129.066 38.7552 128.008 41.1934 126.127 42.991C124.245 44.7887 121.693 45.7987 119.031 45.7987" stroke="white" stroke-width="4" stroke-linecap="round" stroke-linejoin="round"/>
<path d="M102.725 6.21478C103.97 4.61696 105.589 3.31923 107.452 2.42513C109.315 1.53102 111.371 1.06528 113.457 1.06509" stroke="white" stroke-width="4" stroke-linecap="round" stroke-linejoin="round"/>
<path d="M100.791 9.72955C100.106 11.6531 99.9106 13.7049 100.222 15.7149C100.533 17.7249 101.341 19.635 102.579 21.287C103.817 22.939 105.45 24.2851 107.342 25.2138C109.233 26.1425 111.33 26.627 113.457 26.6271" stroke="white" stroke-width="4" stroke-linecap="round" stroke-linejoin="round"/>
<path d="M119.031 1.06509H119.038" stroke="white" stroke-width="4" stroke-linecap="round" stroke-linejoin="round"/>
<path d="M179.506 144.154C180.245 144.154 180.954 144.434 181.477 144.934C181.999 145.433 182.293 146.11 182.293 146.817C182.293 147.523 181.999 148.2 181.477 148.699C180.954 149.199 180.245 149.479 179.506 149.479H93.6552C92.9159 149.479 92.2069 149.199 91.6842 148.699C91.1615 148.2 90.8678 147.523 90.8678 146.817C90.8678 146.11 91.1615 145.433 91.6842 144.934C92.2069 144.434 92.9159 144.154 93.6552 144.154H179.506Z" fill="#2A9D8F"/>
<path d="M93.6551 149.479H179.506C179.506 151.457 178.683 153.353 177.22 154.751C175.756 156.149 173.771 156.935 171.701 156.935H101.46C99.3898 156.935 97.4047 156.149 95.9411 154.751C94.4774 153.353 93.6551 151.457 93.6551 149.479Z" fill="#2A9D8F"/>
<path d="M172.493 144.154H149.19C153.506 142.384 158.07 141.227 162.737 140.719C164.63 140.483 166.552 140.595 168.401 141.049C170.296 141.624 172.493 144.154 172.493 144.154Z" fill="#FFD18C"/>
<path d="M151.749 140.005C156.555 137.545 160.786 138.828 162.737 140.719C158.07 141.227 153.506 142.384 149.19 144.154C150.307 142.937 151.173 141.529 151.744 140.005H151.749Z" fill="#FFD18C"/>
<path d="M151.838 135.159C152.38 136.735 152.348 138.439 151.749 139.995C151.179 141.519 150.312 142.926 149.196 144.143H115.815C116.277 139.127 122.053 133.636 130.309 130.894C140.148 127.634 149.792 129.541 151.838 135.159Z" fill="#FFD18C"/>
<path opacity="0.66" d="M181.875 144.367H90.8678V146.668H181.875V144.367Z" fill="#F5F5F5"/>
<path opacity="0.25" d="M178.948 149.57H94.352V151.791H178.948V149.57Z" fill="black"/>
<path opacity="0.1" d="M121.205 156.935C143.599 156.935 161.159 157.686 161.159 149.676C165.156 149.565 178.954 149.565 178.954 149.565C178.954 149.565 178.998 156.951 169.711 156.951L121.205 156.935Z" fill="black"/>
<path opacity="0.25" d="M151.749 143.201V139.095C151.749 139.095 161.042 137.699 160.764 141.624C158.116 141.433 151.749 143.201 151.749 143.201Z" fill="black"/>
<path opacity="0.1" d="M117.838 139.686C115.33 144.09 156.655 144.953 147.457 131.842C157.703 135.772 149.062 144.026 149.062 144.026L116.45 144.159C116.45 144.159 116.584 139.814 117.838 139.686Z" fill="black"/>
<path opacity="0.1" d="M156.605 142.423C159.465 142.892 168.245 143.089 167.687 141.358C170.893 141.56 170.965 144.021 170.965 144.021H153.516L156.605 142.423Z" fill="black"/>
<g opacity="0.5">
<path opacity="0.5" d="M145.874 130.702C140.115 130.574 126.256 131.836 117.922 140.549C123.201 131.021 130.783 130.462 133.693 129.978C136.603 129.493 144.296 129.568 145.874 130.702Z" fill="#F5F5F5"/>
<path opacity="0.5" d="M137.993 136.399C142.054 135.597 145.17 134.13 144.952 133.122C144.734 132.114 141.265 131.946 137.203 132.748C133.142 133.549 130.026 135.016 130.244 136.024C130.462 137.032 133.931 137.2 137.993 136.399Z" fill="#F5F5F5"/>
<path opacity="0.5" d="M126.974 139.566C128.135 139.231 128.955 138.575 128.805 138.1C128.655 137.626 127.592 137.513 126.43 137.848C125.269 138.184 124.449 138.84 124.599 139.314C124.749 139.789 125.812 139.901 126.974 139.566Z" fill="#F5F5F5"/>
</g>
<path d="M179.506 144.154H93.6552C92.1158 144.154 90.8678 145.346 90.8678 146.817C90.8678 148.287 92.1158 149.479 93.6552 149.479H179.506C181.045 149.479 182.293 148.287 182.293 146.817C182.293 145.346 181.045 144.154 179.506 144.154Z" stroke="#3C5B66" stroke-width="4" stroke-linecap="round" stroke-linejoin="round"/>
<path d="M93.6552 149.479H179.506C179.506 151.457 178.683 153.353 177.22 154.751C175.756 156.149 173.771 156.935 171.701 156.935H101.46C99.3898 156.935 97.4047 156.149 95.9411 154.751C94.4774 153.353 93.6552 151.457 93.6552 149.479V149.479Z" stroke="#3C5B66" stroke-width="4" stroke-linecap="round" stroke-linejoin="round"/>
<path d="M115.815 144.154C116.277 139.137 122.053 133.647 130.309 130.904C140.159 127.634 149.82 129.541 151.85 135.165C152.881 137.992 151.794 141.22 149.202 144.149C156.003 141.395 164.326 139.798 168.412 141.044C170.307 141.619 172.498 144.149 172.498 144.149" stroke="#3C5B66" stroke-width="4" stroke-linecap="round" stroke-linejoin="round"/>
<path d="M162.737 140.724C160.78 138.834 156.549 137.529 151.744 140.011" stroke="#3C5B66" stroke-width="4" stroke-linecap="round" stroke-linejoin="round"/>
<path d="M129.746 134.094C130.66 134.627 131.346 135.319 131.976 134.36C132.606 133.402 132.282 133.029 131.597 132.864C130.911 132.699 128.832 133.562 129.746 134.094Z" fill="#3C5B66"/>
<path d="M140.996 131.506C141.603 132.331 141.91 133.258 142.897 132.635C143.883 132.012 143.755 131.57 143.203 131.128C142.651 130.686 140.377 130.681 140.996 131.506Z" fill="#3C5B66"/>
<path d="M137.327 137.012C137.885 136.123 139.741 137.124 138.905 137.998C138.069 138.871 136.302 138.653 137.327 137.012Z" fill="#3C5B66"/>
<path d="M149.765 132.987C149.617 133.319 149.553 133.68 149.578 134.041C149.603 134.401 149.717 134.751 149.909 135.062C150.102 135.373 150.368 135.636 150.687 135.831C151.005 136.025 151.367 136.145 151.744 136.182C151.507 134.924 150.804 133.79 149.765 132.987Z" fill="#3C5B66"/>
<path d="M145.361 137.998C146.476 137.199 148.449 139.281 146.988 139.494C145.528 139.707 144.296 138.765 145.361 137.998Z" fill="#3C5B66"/>
<path d="M121.205 136.389C122.253 136.922 124.316 138.647 123.062 135.122C122.181 135.766 121.205 136.389 121.205 136.389Z" fill="#3C5B66"/>
<path d="M129.517 139.526C128.636 138.637 127.756 139.185 127.895 140.059C128.034 140.932 131.05 141.065 129.517 139.526Z" fill="#3C5B66"/>
<path d="M124.455 143.536C123.48 142.695 121.947 141.007 121.713 143.27C123.759 143.888 124.455 143.536 124.455 143.536Z" fill="#3C5B66"/>
<path d="M140.884 141.049C139.892 140.447 138.487 141.049 139.602 142.114C140.717 143.179 142.278 141.896 140.884 141.049Z" fill="#3C5B66"/>
</g>
<defs>
<clipPath id="clip0_7:350">
<rect width="194" height="158" fill="white"/>
</clipPath>
</defs>
</svg>
